<?xml version="1.0" encoding="UTF-8" standalone="no"?>
<!DOCTYPE svg PUBLIC "-//W3C//DTD SVG 1.1//EN" "http://www.w3.org/Graphics/SVG/1.1/DTD/svg11.dtd">
<svg width="72" height="72" viewBox="0 0 72 8"  xmlns="http://www.w3.org/2000/svg" xmlns:xlink="http://www.w3.org/1999/xlink">
	<path fill="white" d="M3.59,7.21A3.56,3.56,0,0,1,2.2,6.93a3.66,3.66,0,0,1-1.15-.78A3.88,3.88,0,0,1,.28,5,3.42,3.42,0,0,1,0,3.62,3.45,3.45,0,0,1,.28,2.23a4.12,4.12,0,0,1,.77-1.16A3.52,3.52,0,0,1,2.2.28,3.39,3.39,0,0,1,3.59,0H68.41A3.39,3.39,0,0,1,69.8.28,3.52,3.52,0,0,1,71,1.07a4.12,4.12,0,0,1,.77,1.16A3.45,3.45,0,0,1,72,3.62,3.42,3.42,0,0,1,71.72,5,3.88,3.88,0,0,1,71,6.15a3.66,3.66,0,0,1-1.15.78,3.56,3.56,0,0,1-1.39.28Z" />
</svg>